<?xml version="1.0" encoding="utf-8"?>
<!-- Generator: Adobe Illustrator 23.1.0, SVG Export Plug-In . SVG Version: 6.00 Build 0)  -->
<svg version="1.1" id="banner-dark" xmlns="http://www.w3.org/2000/svg" xmlns:xlink="http://www.w3.org/1999/xlink" x="0px"
	 y="0px" viewBox="0 0 1536 512" style="enable-background:new 0 0 1536 512;" xml:space="preserve">
<style type="text/css">
	.st0{fill:#E02E1D;}
	.st1{fill:#FFFFFF;}
</style>
<title>banner-dark</title>
<g>
	<path class="st0" d="M168.8,93.6c12.3-3.6,23.7,3.9,34.1,9.4c35.9,20.8,71.9,41.5,107.7,62.4c5.7,3.1,11.4,8.3,11.3,15.3
		c0.1,49.8,0,99.5,0,149.3c0.2,7.8-6.7,13.2-12.6,17c-37.6,21.9-75.3,43.6-112.7,65.7c-5.7,3.4-12.1,6-18.7,6.6
		c-5.6,0.6-10.6-2.5-15.3-5c-14.9-8.7-29.9-17.2-44.7-26c-3.4-1.3-2.5-5.5-2.7-8.4c0.2-14.5-0.1-29,0.3-43.5
		c19,14.9,43.4,22.3,67.4,21.5c26.7-1.3,53.1-12.4,71.5-31.9c20.4-19.1,30.7-47.2,31.9-74.8c-0.6-16.9-3.2-34.1-10.4-49.5
		c-8.1-18.9-22.2-34.8-38.9-46.5c-16-10.8-35-16.7-54.1-18.6c-25.5-1.4-51.2,6.9-71.7,22c-16,12.8-29.8,28.9-37.4,48.1
		c-10.7,24.7-7.5,52.1-8.1,78.2c-0.4,24.5-1.2,49-0.5,73.5c-8.9-6.1-18.6-10.7-27.6-16.7c-4.1-2.7-6.3-7.3-9-11.3V180.1
		c2.9-5.7,6.9-11,12.6-14c29.2-16.9,58.3-33.8,87.5-50.7C142,108,154.8,99.6,168.8,93.6z"/>
	<path class="st0" d="M167.5,186.5c18.8-2.7,38.8,3.1,52.4,16.5c21.4,20.1,24.7,55.5,8.8,79.8c-10.2,15.3-27.1,26.7-45.7,27.7
		c-32.3,4.6-64.5-22-66.9-54.3c0-5.9-0.1-11.8,0.1-17.6C119.4,212.3,141.5,190.5,167.5,186.5z"/>
</g>
<g>
	<g>
		<path class="st1" d="M387.3,179.4c27.6,0.5,55.3-0.1,82.9,0.3c6.6,1.2,13.2,3,19.3,6.1c6.3,2.8,10.8,8.3,15.5,13.1
			c8.3,9.5,9.7,22.7,11.3,34.7c-0.9,10.9-2.8,22.4-9.7,31.4c-5.8,6-11.4,12.7-19.6,15.4c-21.4,7.8-44.7,5.1-67.1,5.4
			c0.4,15.1-0.2,30.2,0.3,45.3c-10.9-0.3-21.9-0.3-32.8,0C387.6,280.5,387.6,230,387.3,179.4z M420,207.3
			c-0.3,17.1,0.2,34.1-0.2,51.2c14.1-0.1,28.3,0.5,42.4-0.3c5.2-1.6,10.5-3.5,14.6-7.1c7-8.4,7.4-20.6,3.5-30.4
			c-4.6-8.8-14.6-13.6-24.3-13.4C444,207.3,432,207.1,420,207.3z"/>
	</g>
	<g>
		<path class="st1" d="M572.2,179.5c12.3,0.2,24.7,0.2,37,0c6.5,17.7,14.5,34.8,21.5,52.3c14.1,33,27.5,66.4,41.7,99.4
			c-11.9-0.5-23.8-0.3-35.8-0.1c-2.8-9.4-8.1-17.9-10.3-27.5c-23.1,0-46.3,0-69.4,0c-2.9,9.3-7.4,18.1-10.4,27.4
			c-12.3-0.2-24.6-0.3-36.9,0.1c2.8-5.2,4.7-10.7,7.1-16.1C534.8,269.7,553.1,224.4,572.2,179.5z M584.1,233.5
			c-5.5,14.5-12.4,28.6-16.7,43.5c15.5,0.3,31-0.7,46.5,0.4c-0.1-4.3-1.9-8.2-3.5-12c-6.5-16-12.7-32.1-18.5-48.4
			C588.3,221.9,586.6,227.9,584.1,233.5z"/>
	</g>
	<g>
		<path class="st1" d="M690.8,179.4c22.9,0.4,45.8,0.1,68.6,0.2c21.4-0.6,43,7.9,57.7,23.5c10.5,12.5,17.4,28.4,17.2,44.9
			c0.3,11.2,0.6,22.8-3.2,33.5c-8.4,28.2-36.5,47.5-65.2,49.4c-25,0.1-50.1-0.2-75.1,0.2C691.1,280.5,691.1,230,690.8,179.4z
			 M724.8,301.8c13.1-0.5,26.2,0.2,39.3-0.4c6.5-1.8,13.4-3.1,18.9-7.3c11.7-7.7,17.4-22,17.6-35.6c0.9-13.8-2.2-29.1-13-38.7
			c-6.1-6.6-15.1-8.8-23.5-10.9c-13.1-0.5-26.2,0.1-39.3-0.3C724.8,239.8,724.7,270.8,724.8,301.8z"/>
	</g>
	<path class="st1" d="M857.8,179.4c41.5,0.3,82.9,0.3,124.4,0c-0.7,7.6,0.4,15.2-0.6,22.7c-25.7,32-51.8,63.8-78,95.4
		c-1.1,1.8-2,3.7-2.6,5.7c28.1-0.1,56.3,0.2,84.4-0.2c-0.3,9.3-0.3,18.7,0,28c-44.1-0.3-88.3-0.3-132.4,0c0.3-7.6,0.1-15.2,0.2-22.8
		c23.7-28.4,46.6-57.4,70.6-85.6c2.9-5.1,8.8-8,10.5-13.8c-25.5,0.1-51-0.2-76.4,0.2C858.1,199.2,858.1,189.3,857.8,179.4z"/>
	<g>
		<path class="st1" d="M1064.2,180.3c1.9-1.3,4.5-0.4,6.7-0.7c10,0,20.1,0.1,30.1-0.1c11.7,27.8,24,55.3,35.5,83.1
			c9.8,22.8,18.9,45.9,28.8,68.6c-11.9-0.6-23.9-0.3-35.8-0.2c-3.9-9.2-7.6-18.4-11.6-27.5c-23.2,0.2-46.4,0.1-69.6,0.1
			c-2.8,9.4-7.3,18.1-10.3,27.5c-12.1-0.3-24.1-0.1-36.2-0.1C1022.5,280.7,1042.8,230.2,1064.2,180.3z M1080.4,222.2
			c-6.2,15.9-12.5,31.7-18.7,47.5c-1,2.2-1.1,4.7-1.3,7.1c13.1,0.2,26.3,0,39.4,0.1c2.5,0.1,5-0.4,7.5-1
			c-8.3-19.5-15.7-39.4-24.1-58.8C1082.3,218.8,1081.2,220.4,1080.4,222.2z"/>
	</g>
	<path class="st1" d="M1185.4,179.4c12.3,0.4,24.6,0.1,36.9,0.2c18.8,26.9,38.3,53.1,56.8,80.2c4.5,5.8,8.3,12.3,13.9,17.1
		c0.2-32.5,0.3-65,0-97.5c10.9,0.3,21.9,0.3,32.8,0c-0.3,50.6-0.3,101.1,0,151.7c-11.5-0.4-23-0.2-34.5-0.1
		c-20-28.5-40.9-56.5-60.9-85.1c-3.5-4.7-6.6-9.8-10.6-14.1c-0.4,33.1-0.4,66.2,0,99.3c-11.5-0.3-22.9-0.3-34.4,0
		C1185.7,280.5,1185.7,230,1185.4,179.4z"/>
	<path class="st1" d="M1360.5,179.4c11.5,0.3,22.9,0.3,34.4,0c-0.3,50.6-0.3,101.1,0,151.7c-11.5-0.3-23-0.3-34.4,0
		C1360.8,280.5,1360.8,230,1360.5,179.4z"/>
	<path class="st1" d="M1472.9,179.5c11.5,0.2,22.9,0.2,34.4,0c-0.4,34.6,0,69.3-0.2,103.9c-1.2,10-3.4,20.2-9.7,28.4
		c-6,9.7-16.7,15.1-27.1,18.9c-5.5,2.3-11.6,1.4-17.2,3.1c-4.9,1.5-9.6-1.3-14.5-1.2c-8.2-0.2-15.9-3.4-23.8-5.1
		c3.2-8.4,5.4-17.3,7.5-26c7.5,4,16,5.8,24.3,6.8c6.9-1.4,14.5-3.1,19.3-8.8c4-3.8,5.9-9.3,7.1-14.6
		C1473.1,249.7,1473.3,214.6,1472.9,179.5z"/>
</g>
</svg>
